<?xml version="1.0" encoding="UTF-8" standalone="no"?>
<!-- Created with Inkscape (http://www.inkscape.org/) -->

<svg
   width="15mm"
   height="15mm"
   viewBox="0 0 15 15"
   version="1.1"
   id="svg5"
   inkscape:version="1.1 (c68e22c387, 2021-05-23)"
   sodipodi:docname="Halibut.svg"
   xmlns:inkscape="http://www.inkscape.org/namespaces/inkscape"
   xmlns:sodipodi="http://sodipodi.sourceforge.net/DTD/sodipodi-0.dtd"
   xmlns:xlink="http://www.w3.org/1999/xlink"
   xmlns="http://www.w3.org/2000/svg"
   xmlns:svg="http://www.w3.org/2000/svg">
  <sodipodi:namedview
     id="namedview7"
     pagecolor="#ffffff"
     bordercolor="#111111"
     borderopacity="1"
     inkscape:pageshadow="0"
     inkscape:pageopacity="0"
     inkscape:pagecheckerboard="1"
     inkscape:document-units="mm"
     showgrid="false"
     width="15mm"
     showguides="true"
     inkscape:guide-bbox="true"
     inkscape:zoom="10.24"
     inkscape:cx="4.1015625"
     inkscape:cy="26.513672"
     inkscape:window-width="1920"
     inkscape:window-height="1057"
     inkscape:window-x="-8"
     inkscape:window-y="-8"
     inkscape:window-maximized="1"
     inkscape:current-layer="layer4">
    <inkscape:grid
       type="xygrid"
       id="grid12412" />
    <sodipodi:guide
       position="5.0270834,7.5"
       orientation="0,1"
       id="guide12414"
       inkscape:label=""
       inkscape:locked="false"
       inkscape:color="rgb(0,0,255)" />
    <sodipodi:guide
       position="7.5,10.766667"
       orientation="-1,0"
       id="guide12418"
       inkscape:label=""
       inkscape:locked="false"
       inkscape:color="rgb(0,0,255)" />
  </sodipodi:namedview>
  <defs
     id="defs2">
    <linearGradient
       inkscape:collect="always"
       id="linearGradient1036">
      <stop
         style="stop-color:#002255;stop-opacity:1"
         offset="0"
         id="stop1032" />
      <stop
         style="stop-color:#37c8ab;stop-opacity:1"
         offset="1"
         id="stop1034" />
    </linearGradient>
    <linearGradient
       inkscape:collect="always"
       xlink:href="#linearGradient1036"
       id="linearGradient1038"
       x1="7.5242205"
       y1="15.007099"
       x2="7.5242205"
       y2="0"
       gradientUnits="userSpaceOnUse" />
  </defs>
  <g
     inkscape:label="Background"
     inkscape:groupmode="layer"
     id="layer1"
     sodipodi:insensitive="true">
    <rect
       style="opacity:1;fill:url(#linearGradient1038);fill-opacity:1;stroke-width:0.15"
       id="BG"
       width="15"
       height="15"
       x="-5.5511151e-17"
       y="0" />
  </g>
  <g
     inkscape:groupmode="layer"
     id="layer2"
     inkscape:label="Sub">
    <g
       id="layer3-0"
       inkscape:label="Label"
       transform="translate(-0.03938,-0.0212579)">
      <text
         xml:space="preserve"
         style="font-size:3.25px;line-height:1.25;font-family:Wingdings;-inkscape-font-specification:Wingdings;fill:#cccccc;stroke-width:0.788097"
         x="7.3363805"
         y="13.036817"
         id="Type-1"><tspan
           sodipodi:role="line"
           id="tspan7120-2"
           style="font-style:normal;font-variant:normal;font-weight:normal;font-stretch:normal;font-size:3.25px;font-family:Stencil;-inkscape-font-specification:Stencil;text-align:center;text-anchor:middle;fill:#cccccc;stroke-width:0.788097"
           x="7.3363805"
           y="13.036817">halibut</tspan></text>
    </g>
    <path
       style="fill:#000000;stroke-width:0.00727069"
       d="m 7.8596671,8.6163037 c 2.1910869,-0.00432 2.4245889,-0.00791 3.2904659,-0.050807 0.267914,-0.013259 0.758981,-0.058096 1.028328,-0.09387 0.368812,-0.048985 0.562005,-0.088247 0.861111,-0.1750027 0.145059,-0.042067 0.183919,-0.050951 0.194392,-0.044405 0.0072,0.00456 0.02091,0.00815 0.03046,0.00815 0.01583,0 0.01767,0.0036 0.02072,0.040245 0.0054,0.064882 0.03426,0.073717 0.03482,0.01067 1.09e-4,-0.013991 0.0034,-0.030355 0.0073,-0.036349 0.005,-0.00767 0.0071,0.00228 0.0072,0.033736 1.09e-4,0.041696 0.01127,0.1067332 0.04016,0.233462 l 0.01201,0.052713 h 0.180093 0.180096 l 0.0047,-0.066548 c 0.0026,-0.036601 0.0047,-0.096615 0.0047,-0.1333668 0,-0.036745 0.0022,-0.1065893 0.0047,-0.1552037 l 0.0047,-0.088391 h 0.01982 c 0.01091,0 0.02334,-0.00432 0.02766,-0.00947 0.0048,-0.00575 0.0083,-0.053397 0.0088,-0.1217847 10e-4,-0.129811 0.0054,-0.1133029 -0.100679,-0.3853893 l -0.06361,-0.1631712 -0.08343,0.00117 -0.08343,0.00117 -0.01163,0.075096 c -0.0064,0.0413 -0.01771,0.1204468 -0.02515,0.1758778 -0.0086,0.063934 -0.01693,0.1020817 -0.02278,0.1043235 -0.005,0.00204 -0.129395,-0.01007 -0.276275,-0.02683 l -0.266843,-0.030367 -0.02542,-0.022322 c -0.03466,-0.030427 -0.0878,-0.0536 -0.17276,-0.075347 -0.09351,-0.023929 -0.540409,-0.089925 -0.540409,-0.089925 l -0.130872,-0.020009 -0.107249,-0.00504 c -0.14703,-0.00695 -0.370033,-0.017623 -0.539848,-0.025919 -0.07797,-0.00384 -0.295553,-0.00875 -0.483502,-0.011029 -0.187946,-0.00228 -0.371558,-0.00599 -0.408024,-0.00815 l -0.0663,-0.00408 -0.03003,-0.040917 c -0.01652,-0.022502 -0.03003,-0.038243 -0.03003,-0.03497 0,0.00324 0.0093,0.017863 0.02059,0.032429 0.01133,0.014566 0.0229,0.030463 0.02571,0.035318 0.0039,0.00683 -0.06367,0.00887 -0.303506,0.00923 -0.2422765,1.99e-4 -0.3094258,-0.00156 -0.3123317,-0.00887 -0.00289,-0.00719 -0.00384,-0.00731 -0.00428,-1.079e-4 -3.973e-4,0.00707 -0.0748,0.00911 -0.3459336,0.00911 h -0.345509 v -0.048062 -0.048062 l 0.014905,0.017167 0.01491,0.017168 -0.00945,-0.017887 c -0.011593,-0.021951 -0.027434,-0.03979 -0.028153,-0.031697 -1.987e-4,0.00324 -7.96e-5,0.029695 3.967e-4,0.058683 l 0.001,0.052713 H 8.9475661 8.8131471 l -0.00736,-0.023629 c -0.00685,-0.022011 -0.017587,-0.074304 -0.025743,-0.1254208 -0.002,-0.011988 -0.010442,-0.057365 -0.018938,-0.1008109 -0.0085,-0.043446 -0.013715,-0.083524 -0.011593,-0.089062 0.00211,-0.00551 0.00117,-0.01007 -0.002,-0.01007 -0.00699,0 -0.034283,-0.1436277 -0.028408,-0.149502 0.00539,-0.00539 0.1105096,-0.023617 0.1827657,-0.031709 0.037855,-0.0042 0.061211,-0.01055 0.069071,-0.018822 0.011173,-0.011749 0.00802,-0.012132 -0.053555,-0.00755 -0.035991,0.00264 -0.096518,0.010909 -0.1345086,0.018186 -0.072618,0.014015 -0.07959,0.012444 -0.079906,-0.017803 -8.34e-5,-0.00803 -0.00356,-0.026806 -0.00772,-0.041804 l -0.00759,-0.027262 h -0.05419 -0.054189 V 6.7370812 c 0,-0.1009787 0.00251,-0.14905 0.00778,-0.14905 0.00428,0 0.00674,-0.00731 0.00545,-0.016352 -0.00179,-0.012204 -0.00786,-0.016916 -0.024135,-0.018498 l -0.021809,-0.00216 0.00245,0.1675566 0.00245,0.1675567 H 8.4672585 8.3830492 V 6.6615228 c 0,-0.1929494 -0.00162,-0.2252031 -0.010898,-0.2287985 -0.00874,-0.00336 -0.010898,-0.019397 -0.010898,-0.080754 0,-0.046203 -0.00289,-0.07657 -0.00727,-0.07657 -0.0044,0 -0.00726,0.031302 -0.00726,0.079376 0,0.057041 -0.00255,0.080227 -0.00909,0.082397 -0.00693,0.00228 -0.00967,0.055495 -0.011557,0.2241804 -0.00139,0.1216361 -0.00362,0.2223151 -0.00501,0.2237322 -0.00139,0.00144 -0.037098,0.00432 -0.079334,0.00647 l -0.076792,0.00384 -3.973e-4,-0.2537008 c -3.967e-4,-0.25167 -0.00379,-0.3730399 -0.010586,-0.3798302 -0.002,-0.00204 -0.00356,0.022994 -0.00356,0.055423 0,0.032429 -0.00328,0.060973 -0.00727,0.063443 -0.00445,0.00276 -0.00727,0.056646 -0.00727,0.1374105 0,0.073106 -0.00217,0.1874275 -0.00478,0.2540461 l -0.00478,0.1211277 H 8.0438738 7.9614028 V 6.7228677 6.5522996 l 0.019138,-0.017731 c 0.016334,-0.015141 0.018399,-0.021555 0.014215,-0.043914 -0.0039,-0.020872 -0.00824,-0.026183 -0.021304,-0.026183 -0.020324,0 -0.033771,0.012768 -0.034071,0.032357 -1.268e-4,0.00815 -0.00484,0.021028 -0.010538,0.02852 -0.00983,0.012983 -0.010538,0.01272 -0.015105,-0.00539 -0.00693,-0.027573 -0.016835,-0.023497 -0.011053,0.00456 0.00345,0.016952 0.00887,0.023629 0.019077,0.023629 0.013659,6e-6 0.014293,0.00683 0.016178,0.1726793 l 0.002,0.1726721 H 7.8816128 7.8233148 V 6.79511 c 0,-0.080742 -0.002,-0.099132 -0.010897,-0.1025612 -0.00856,-0.00324 -0.010898,-0.018079 -0.010898,-0.06885 0,-0.035558 -0.00284,-0.064654 -0.00632,-0.064654 -0.00804,0 -0.015306,0.043542 -0.015405,0.092275 -4.4e-5,0.020752 -0.00333,0.039766 -0.00735,0.042235 -0.00428,0.00264 -0.00727,0.044909 -0.00727,0.1022136 0,0.080239 -0.00177,0.09773 -0.010478,0.09773 -0.00575,0 -0.012685,-0.0036 -0.015384,-0.00791 -0.00312,-0.00504 -0.016056,-0.00623 -0.034967,-0.00312 -0.016536,0.00264 -0.053767,0.00647 -0.082762,0.00851 -0.049733,0.0036 -0.05271,0.00288 -0.05271,-0.011389 0,-0.019122 -0.00839,-0.019361 -0.020124,-6.126e-4 -0.0058,0.00923 -0.016953,0.014554 -0.030833,0.014554 H 7.4961688 V 7.048942 c 0,0.085478 -0.00457,0.1782647 -0.00457,0.1782647 l -0.00272,0.1615096 v 0.122819 H 7.3297139 c -0.1347845,0 -0.1598185,-0.00156 -0.163362,-0.01091 -0.00228,-0.00599 -0.012563,-0.010909 -0.022816,-0.010909 -0.010238,0 -0.020513,0.00492 -0.022816,0.010909 -0.00234,0.00611 -0.01318,0.01091 -0.024713,0.01091 -0.015761,0 -0.02107,-0.00384 -0.02285,-0.016352 l -0.00234,-0.016352 -0.5223412,-0.0018 c -0.5175886,-0.0018 -0.5223744,-0.0018 -0.5261561,0.01272 -0.00356,0.013475 -0.00984,0.01459 -0.083399,0.01459 -0.110434,0 -0.283852,-0.012983 -0.3404205,-0.0255 -0.025993,-0.00575 -0.1037852,-0.030139 -0.1728725,-0.0542 -0.2072895,-0.072194 -0.2590444,-0.081905 -0.4576375,-0.085861 -0.157365,-0.00312 -0.1691164,-0.00432 -0.1731679,-0.017048 -0.00312,-0.00983 -0.011233,-0.013691 -0.028397,-0.013691 -0.020657,0 -0.024635,-0.003 -0.028218,-0.020872 -0.00523,-0.026051 -0.024235,-0.031757 -0.073438,-0.022035 -0.062489,0.012348 -0.069605,0.017275 -0.069732,0.048194 -8.11e-5,0.019277 -0.00206,0.024325 -0.00671,0.016976 -0.00529,-0.00839 -0.00875,-0.00863 -0.017431,-0.00144 -0.00596,0.00492 -0.02502,0.00887 -0.042361,0.00863 -0.034216,-3.968e-4 -0.078659,0.00492 -0.2351104,0.027693 -0.055984,0.00815 -0.1165122,0.016832 -0.134507,0.019277 -0.018004,0.0024 -0.1292381,0.018582 -0.2472033,0.035881 l -0.2144871,0.031434 -0.023629,-0.022418 c -0.013003,-0.012324 -0.023628,-0.01929 -0.023628,-0.015465 0,0.00384 0.00656,0.011029 0.014532,0.016017 0.020034,0.012504 0.018204,0.021148 -0.00545,0.025667 -0.166165,0.031697 -0.2641658,0.044405 -0.3580817,0.046419 -0.1279764,0.00276 -0.1963086,-0.00252 -0.1963086,-0.015225 0,-0.00539 -0.00923,-0.00911 -0.022127,-0.00911 -0.015306,0 -0.020992,0.003 -0.01846,0.00959 0.00428,0.011149 -0.1747958,0.01483 -0.5503088,0.011389 l -0.22372,-0.00204 -0.00875,3.98e-4 H 2.0536531 1.8260187 l -0.00234,-0.016352 c -0.002,-0.013391 -0.00691,-0.016352 -0.027774,-0.016352 -0.022265,0 -0.025465,0.00228 -0.025576,0.018187 l -1.369e-4,0.018186 -0.2074241,0.0036 c -0.2293281,0.00396 -0.2338758,0.00492 -0.258447,0.052462 -0.010778,0.020824 -0.012245,0.075311 -0.014215,0.5248114 -0.00139,0.2980137 6.12e-4,0.5066752 0.00457,0.5141428 0.00367,0.00695 0.017387,0.016077 0.030411,0.020356 0.024835,0.00815 2.4839651,0.00827 6.5345953,1.99e-4 z M 9.1538155,7.5 C 9.1537938,7.49628 9.1453355,7.483528 9.1350375,7.471515 L 9.1163,7.4497085 9.1327182,7.47516 c 0.02107,0.032644 0.021142,0.032728 0.021097,0.02484 z m 1.1938505,-0.037572 0.0022,-0.034539 0.04363,-0.0042 0.04362,-0.0042 -0.04908,-0.00117 -0.04908,-0.00117 v 0.039993 c 0,0.049069 0.0057,0.052629 0.0087,0.00539 z M 2.5094968,7.499029 c -0.0024,-0.00623 -0.0044,-0.031146 -0.01638,-0.031146 -0.013854,0 -0.021036,0.00372 -0.021036,0.01091 0,0.00755 -0.00117,0.031146 0.016379,0.031146 0.019433,0 0.024257,-0.00252 0.021036,-0.010909 z M 9.7791301,7.427458 c 0,-0.01423 -0.00272,-0.024193 -0.00605,-0.022131 -0.00573,0.0036 -0.00272,0.048014 0.00328,0.048014 0.00162,0 0.00278,-0.011629 0.00278,-0.025871 z m 0.5141369,-0.00863 c -0.02314,-0.00144 -0.05913,-0.00144 -0.07998,3e-5 -0.02085,0.00144 -0.002,0.00264 0.04207,0.00264 0.04399,-1.44e-5 0.06105,-0.00117 0.03791,-0.00264 z"
       id="path3934"
       sodipodi:nodetypes="csssssscscsccccsccsssscccsssscssccsssscsssssssscccccssccccsssssssssscscccsssscccccssssssssscsssssscccccssscssssscccsssssssssssssscscccsssssscsssssssssscsssssscssssssssscccccsccssssscccscscccccccsccssssssssssccss" />
  </g>
  <g
     inkscape:groupmode="layer"
     id="layer3"
     inkscape:label="Label">
    <g
       id="g24095"
       transform="translate(3.6289088,-3.7943388)" />
  </g>
  <g
     inkscape:groupmode="layer"
     id="layer4"
     inkscape:label="Flag">
    <g
       id="layer4-1"
       inkscape:label="Flag"
       transform="translate(1.7566634,1.4313159)">
      <g
         id="g12792"
         transform="scale(0.00404858)">
        <g
           id="g27279"
           transform="translate(-433.89618,-353.53529)">
          <rect
             width="1482"
             height="1050"
             fill="#002868"
             id="rect2"
             style="fill:#3c3b6e;fill-opacity:1"
             x="0"
             y="0" />
          <g
             id="r1">
            <use
               xlink:href="#s"
               x="-123.5"
               y="-105"
               id="use4"
               width="100%"
               height="100%" />
            <use
               xlink:href="#r2"
               x="123.5"
               y="-105"
               id="use6"
               width="100%"
               height="100%" />
          </g>
          <g
             id="r2">
            <g
               id="s"
               transform="translate(247,210)">
              <g
                 id="c">
                <path
                   id="t"
                   d="M 0,-60 V 0 h 30"
                   transform="rotate(18,0,-60)"
                   fill="#ffffff" />
                <use
                   xlink:href="#t"
                   transform="scale(-1,1)"
                   id="use10"
                   x="0"
                   y="0"
                   width="100%"
                   height="100%" />
              </g>
              <use
                 xlink:href="#c"
                 transform="rotate(72)"
                 id="use13"
                 x="0"
                 y="0"
                 width="100%"
                 height="100%" />
              <use
                 xlink:href="#c"
                 transform="rotate(144)"
                 id="use15"
                 x="0"
                 y="0"
                 width="100%"
                 height="100%" />
              <use
                 xlink:href="#c"
                 transform="rotate(-144)"
                 id="use17"
                 x="0"
                 y="0"
                 width="100%"
                 height="100%" />
              <use
                 xlink:href="#c"
                 transform="rotate(-72)"
                 id="use19"
                 x="0"
                 y="0"
                 width="100%"
                 height="100%" />
            </g>
            <use
               xlink:href="#s"
               x="247"
               id="use22"
               y="0"
               width="100%"
               height="100%" />
            <use
               xlink:href="#s"
               x="494"
               id="use24"
               y="0"
               width="100%"
               height="100%" />
            <use
               xlink:href="#s"
               x="741"
               id="use26"
               y="0"
               width="100%"
               height="100%" />
            <use
               xlink:href="#s"
               x="988"
               id="use28"
               y="0"
               width="100%"
               height="100%" />
          </g>
          <use
             xlink:href="#r1"
             y="210"
             id="use31"
             x="0"
             width="100%"
             height="100%" />
          <use
             xlink:href="#r2"
             y="210"
             id="use33"
             x="0"
             width="100%"
             height="100%" />
          <use
             xlink:href="#r1"
             y="420"
             id="use35"
             x="0"
             width="100%"
             height="100%" />
          <use
             xlink:href="#r2"
             y="420"
             id="use37"
             x="0"
             width="100%"
             height="100%" />
          <use
             xlink:href="#r1"
             y="630"
             id="use39"
             x="0"
             width="100%"
             height="100%" />
          <use
             xlink:href="#r2"
             y="630"
             id="use41"
             x="0"
             width="100%"
             height="100%" />
          <use
             xlink:href="#r1"
             y="840"
             id="use43"
             x="0"
             width="100%"
             height="100%" />
        </g>
      </g>
    </g>
  </g>
</svg>
