<?xml version="1.0" encoding="UTF-8" standalone="no"?>
<!-- Created with Inkscape (http://www.inkscape.org/) -->

<svg
   width="15mm"
   height="15mm"
   viewBox="0 0 15 15"
   version="1.1"
   id="svg5"
   inkscape:version="1.1 (c68e22c387, 2021-05-23)"
   sodipodi:docname="PUS_Fleet.svg"
   xmlns:inkscape="http://www.inkscape.org/namespaces/inkscape"
   xmlns:sodipodi="http://sodipodi.sourceforge.net/DTD/sodipodi-0.dtd"
   xmlns:xlink="http://www.w3.org/1999/xlink"
   xmlns="http://www.w3.org/2000/svg"
   xmlns:svg="http://www.w3.org/2000/svg">
  <sodipodi:namedview
     id="namedview7"
     pagecolor="#ffffff"
     bordercolor="#111111"
     borderopacity="1"
     inkscape:pageshadow="0"
     inkscape:pageopacity="0"
     inkscape:pagecheckerboard="1"
     inkscape:document-units="mm"
     showgrid="false"
     width="15mm"
     showguides="true"
     inkscape:guide-bbox="true"
     inkscape:zoom="5.6568545"
     inkscape:cx="29.610095"
     inkscape:cy="38.44893"
     inkscape:window-width="1313"
     inkscape:window-height="699"
     inkscape:window-x="610"
     inkscape:window-y="259"
     inkscape:window-maximized="0"
     inkscape:current-layer="g3600">
    <inkscape:grid
       type="xygrid"
       id="grid12412" />
    <sodipodi:guide
       position="5.0270834,7.5"
       orientation="0,1"
       id="guide12414"
       inkscape:label=""
       inkscape:locked="false"
       inkscape:color="rgb(0,0,255)" />
    <sodipodi:guide
       position="7.5,10.766667"
       orientation="-1,0"
       id="guide12418"
       inkscape:label=""
       inkscape:locked="false"
       inkscape:color="rgb(0,0,255)" />
  </sodipodi:namedview>
  <defs
     id="defs2">
    <linearGradient
       inkscape:collect="always"
       id="linearGradient1036">
      <stop
         style="stop-color:#002255;stop-opacity:1"
         offset="0"
         id="stop1032" />
      <stop
         style="stop-color:#37c8ab;stop-opacity:1"
         offset="1"
         id="stop1034" />
    </linearGradient>
    <linearGradient
       inkscape:collect="always"
       xlink:href="#linearGradient1036"
       id="linearGradient1038"
       x1="7.5242205"
       y1="15.007099"
       x2="7.5242205"
       y2="0"
       gradientUnits="userSpaceOnUse" />
  </defs>
  <g
     inkscape:label="Background"
     inkscape:groupmode="layer"
     id="layer1"
     sodipodi:insensitive="true">
    <rect
       style="opacity:1;fill:url(#linearGradient1038);fill-opacity:1;stroke-width:0.15"
       id="BG"
       width="15"
       height="15"
       x="-5.5511151e-17"
       y="0" />
  </g>
  <g
     inkscape:groupmode="layer"
     id="layer2"
     inkscape:label="Fleet">
    <path
       style="fill:#000000;stroke-width:0.0294576"
       d="m 13.623995,7.438615 0.01347,-0.066269 0.01753,-0.1290146 0.01755,-0.1290147 -0.42073,0.019919 -0.420732,0.019919 0.03985,-0.027071 0.03985,-0.027071 -0.03275,-0.061208 -0.03275,-0.061208 0.11072,-0.030751 0.110719,-0.030751 0.03681,-1.123e-4 0.03681,-1.106e-4 v -0.026794 -0.026795 l -0.153027,0.040373 -0.153028,0.040373 -0.03652,-0.030319 -0.03652,-0.030319 -0.09766,0.00933 -0.09766,0.00933 0.0055,0.1251968 0.0055,0.1251967 H 12.446228 12.315451 V 7.004151 6.8568587 h -0.04419 -0.04419 v 0.044191 0.044191 H 12.06506 11.903049 v -0.046938 -0.046938 l 0.05891,-0.015375 0.05891,-0.015375 v -0.018934 -0.018934 l -0.05891,-0.036797 -0.05891,-0.036797 v 0.029714 0.029714 h -0.07365 -0.07365 v 0.026017 0.026017 l 0.06202,0.016239 0.06202,0.016239 -0.01296,0.038767 -0.01278,0.038767 -0.328998,0.00829 -0.328998,0.00829 V 6.8431418 6.7390732 l -0.272482,-0.00449 -0.272484,-0.00449 0.08836,-0.010538 0.08836,-0.010538 0.125197,-0.016239 0.125197,-0.016239 v -0.031563 -0.031563 l 0.05311,-0.047646 0.05311,-0.047646 -0.05311,-0.051551 -0.05311,-0.051551 v 0.044191 0.044191 h -0.0312 -0.0312 l 0.01572,0.025516 0.01572,0.025516 -0.05502,0.049788 -0.05502,0.049789 -0.241915,-0.05872 -0.241914,-0.05872 -0.01904,-0.019211 -0.01904,-0.01921 0.117837,0.019055 0.117838,0.019055 0.07365,0.013475 0.07365,0.013475 -0.05891,-0.036037 -0.05891,-0.036037 -0.289582,-0.012093 -0.289583,-0.012093 -0.03445,0.035 -0.03445,0.035 0.191475,-0.017276 0.191474,-0.017276 -0.07365,0.032686 -0.07365,0.032686 -0.101512,0.048821 -0.101512,0.048838 0.108872,0.027296 0.108871,0.027296 5.9e-5,0.01693 5.8e-5,0.01693 -0.3261025,-0.00916 -0.3260992,-0.00916 0.0069,-0.167764 0.0069,-0.167764 -0.03419,-0.063885 -0.03419,-0.063885 0.01778,-0.046316 0.01778,-0.046316 0.03367,-4.457e-4 0.03367,-4.457e-4 -0.0374,-0.023737 -0.0374,-0.023737 0.0079,-0.071539 0.0079,-0.071538 h -0.04397 -0.04419 v 0.088365 0.088365 l -0.125197,0.00898 -0.125197,0.00898 v 0.05549 0.055489 l -0.02945,0.018209 -0.02946,0.018209 V 6.2271157 6.1239455 l 0.0576,-0.040339 0.0576,-0.040339 -0.01693,-0.064421 -0.01693,-0.064438 h -0.02602 -0.02602 v 0.040753 0.040753 l -0.05891,0.015375 -0.05891,0.015375 v -0.070882 -0.070882 h -0.117838 -0.117837 v 0.073646 0.073646 h -0.02946 -0.02946 v -0.073644 -0.073646 h -0.04419 -0.04419 v 0.073646 0.073646 h -0.07365 -0.07365 v 0.05891 0.05891 h -0.07365 -0.07365 v 0.088365 0.088365 h -0.147292 -0.147293 v -0.025793 -0.025793 l 0.07615,-0.1722039 0.07615,-0.1722038 -0.03198,-0.010711 -0.03198,-0.010711 v -0.071193 -0.071193 l 0.05155,-0.00294 0.05155,-0.00294 -0.07365,-0.021577 -0.07365,-0.021577 -0.03758,0.013302 -0.03757,0.013302 0.03381,0.040753 0.03381,0.040753 -0.03668,0.044191 -0.03668,0.044191 h 0.0478 0.04778 v 0.029455 0.029455 l -0.05155,0.052812 -0.05155,0.052812 -0.0081,0.057649 -0.0081,0.057649 0.04499,-0.057183 0.04499,-0.057182 v -0.028729 -0.028729 l 0.01486,0.014857 0.01486,0.014857 -0.03248,0.09315 -0.03248,0.09315 h -0.02545 -0.02545 l -0.03386,-0.1251967 -0.03386,-0.1251968 -0.01002,-0.05891 -0.0098,-0.05891 -0.02014,-0.1251968 -0.02014,-0.1251967 0.02597,6.74e-5 0.02597,6.73e-5 -0.0095,-0.2504574 -0.0095,-0.2504574 h 0.09054 0.09054 l -0.0021,-0.081006 -0.0021,-0.081006 -0.02531,0.05891 -0.02531,0.05891 -0.004,-0.05891 -0.004,-0.05891 -0.02735,0.06817 -0.02735,0.06817 -0.02972,-0.018364 -0.02971,-0.018364 v -0.069448 -0.069448 l 0.03681,-0.014857 0.03681,-0.014857 -0.03681,-0.00225 -0.03681,-0.00225 V 4.7681754 4.6528085 l 0.03681,-0.014857 0.03681,-0.014857 -0.08275,-0.00225 -0.08275,-0.00225 0.02332,0.036815 0.02332,0.036814 0.0038,0.081852 0.0038,0.081852 -0.02469,0.015203 -0.02469,0.015203 0.0335,0.053641 0.0335,0.053641 -0.01658,0.043362 -0.01658,0.043362 -0.06902,-0.0076 -0.06902,-0.0076 -0.04025,-0.00242 -0.04025,-0.00242 0.01417,-0.073646 0.01417,-0.073646 h -0.03602 -0.03602 l 0.01503,0.081006 0.01503,0.081006 0.03243,0.021646 0.03243,0.021646 0.09574,4.457e-4 0.09574,4.457e-4 v 0.2356609 0.2356608 h -0.09975 -0.09975 l -0.01978,-0.1318825 -0.01978,-0.1318651 -0.03231,-0.019971 -0.03231,-0.019971 0.02237,0.036193 0.02237,0.036193 -0.06537,0.069586 -0.06537,0.069586 0.06525,-0.017103 0.06525,-0.017103 -0.01054,0.05447 -0.01054,0.05447 -0.06838,0.016066 -0.06838,0.016066 0.07589,0.071297 0.07589,0.071297 V 6.1256765 6.5034901 H 7.362885 7.0053616 l 0.015203,-0.1882754 0.01503,-0.1882754 -0.01845,-0.029058 -0.01845,-0.029058 -0.1234519,-0.020627 -0.1234519,-0.020627 -0.00916,-0.063678 -0.00916,-0.063678 -0.049426,-0.0095 -0.049426,-0.0095 -0.012439,0.082768 -0.012439,0.082768 -0.00449,-0.078552 -0.00432,-0.078553 H 6.4717509 6.3425635 l -0.018451,0.1153669 -0.01845,0.1153669 h -0.090006 -0.090006 l 0.019798,-0.0624 0.019798,-0.0624 -0.039907,0.01382 -0.039907,0.013993 0.0095,0.052345 0.0095,0.052345 -0.07582,-0.014513 -0.075823,-0.014512 -6.686e-4,0.047456 -6.685e-4,0.047473 L 5.8946849,6.12034 5.8379171,6.0466939 5.8024156,5.8487355 5.7669141,5.6507771 5.8358267,5.5208641 5.9047394,5.3909511 5.8403875,5.2227725 5.7760356,5.0545939 v -0.010711 -0.010711 l 0.097677,-0.018329 0.097659,-0.01833 -0.012611,-0.085808 -0.012611,-0.085808 -0.024877,0.015375 -0.024877,0.015375 0.015721,0.040978 0.015721,0.040978 -0.06373,0.034102 -0.06373,0.034102 -0.018122,-0.018122 -0.01814,-0.018122 0.00726,-0.2467742 0.00726,-0.2467725 -0.030854,-0.019072 -0.030854,-0.019072 v 0.2799712 0.2799711 l -0.1399329,0.011057 -0.1399329,0.011056 0.1399329,0.00536 0.1399156,0.00536 V 5.2073816 5.3841272 H 5.5990637 5.4812264 l -0.00466,-0.051551 -0.00466,-0.051551 0.0019,-0.04046 0.0019,-0.04046 -0.04889,0.051361 -0.04889,0.05136 0.037004,0.013648 0.037005,0.013648 -0.016585,0.02695 -0.016585,0.026933 h -0.071909 -0.071901 v 0.013993 0.013993 l 0.058806,0.09645 0.058806,0.09645 1.123e-4,0.051551 1.002e-4,0.051551 h -0.029454 -0.029455 v -0.055765 -0.055766 l -0.044191,-0.01693 -0.044191,-0.01693 -0.040201,0.015375 -0.040201,0.015375 -0.03139,0.068895 -0.03139,0.068895 0.1241948,0.1296193 0.1241948,0.1296193 0.00518,0.057614 0.00518,0.057632 0.01928,0.095742 0.01928,0.095742 h -0.03082 -0.03082 l -0.014506,-0.05155 -0.014512,-0.051551 -0.019262,-0.095742 -0.019262,-0.095742 h -0.027123 -0.027123 l -0.00346,0.066287 -0.00346,0.066287 -0.00397,0.044191 -0.00397,0.044191 -0.063678,-0.00881 -0.063661,-0.00881 -0.021888,0.035415 -0.021888,0.035415 0.034016,-0.021025 0.034016,-0.021024 v 0.028747 0.028747 l -0.036815,0.017103 -0.036814,0.017103 0.036814,0.017103 0.036815,0.017103 v 0.18902 0.1890199 h -0.04604 -0.04604 l 0.00916,-0.054401 0.00916,-0.054401 h -0.02946 -0.029455 l 0.00916,0.054401 0.00916,0.054401 -0.068135,0.00225 -0.068135,0.00225 0.1267861,0.044848 0.1267861,0.044848 -0.00898,0.046385 -0.00898,0.046385 -0.2060399,-0.00743 -0.20604,-0.00743 -0.00639,-0.00639 -0.00639,-0.00639 0.016585,-0.063333 0.016585,-0.063333 0.063281,-0.00898 0.063281,-0.00898 0.00328,-0.066287 0.00328,-0.066287 H 4.5930102 4.3613729 v 0.073646 0.073646 h 0.043258 0.043258 l -0.01693,0.044191 -0.01693,0.044191 h 0.062072 0.062071 v 0.026052 0.026069 L 4.3393326,6.8962455 4.1404948,6.8839797 3.9248151,6.8673951 3.709137,6.8508105 l 0.021336,-0.048838 0.021335,-0.048838 0.00294,-0.073646 0.00294,-0.073646 -0.206204,-0.00363 -0.2062024,-0.00363 -0.095742,-0.031165 -0.095742,-0.031165 v 0.021837 0.021836 l 0.1496419,0.038352 0.1496418,0.038352 -0.017103,0.067876 -0.017103,0.067876 0.03678,0.013129 0.036763,0.013129 -0.014684,0.01503 -0.014684,0.01503 -1.0162876,-0.054004 -1.0162877,-0.054004 -0.058495,-0.00115 -0.058495,-0.00115 0.3820997,0.3829496 0.382098,0.382948 h 5.7662346 5.7661877 l 0.01347,-0.066287 z M 7.7790783,6.4638787 v -0.039458 l 0.07532,-0.034327 0.07532,-0.034327 0.05376,0.028781 0.05376,0.028781 0.01727,0.045003 0.01728,0.045003 h -0.146359 -0.14636 z m 0,-0.1202213 v -0.041842 l 0.09163,-0.020126 0.09163,-0.020126 0.04725,0.047249 0.04725,0.047249 h -0.03576 -0.03578 v -0.027624 -0.027624 l -0.05815,0.00432 -0.05815,0.00432 -0.01451,0.037972 -0.01451,0.037972 h -0.03039 -0.03039 z M 5.4813871,6.2234879 v -0.073646 h 0.05891 0.05891 v 0.073646 0.073646 h -0.05891 -0.05891 z m 2.2976912,-0.029455 v -0.044191 h 0.03856 0.03856 l 0.05718,0.043241 0.05718,0.043241 -0.09574,8.914e-4 -0.09574,8.897e-4 z m 0.03922,-0.084823 -0.005,-0.00363 -0.02101,-0.083718 -0.02101,-0.083718 0.09322,0.048216 0.09322,0.048216 -0.01743,0.028211 -0.01743,0.028194 h 0.02776 0.02776 l 0.0152,0.05815 0.0152,0.058133 -0.09277,-0.047163 -0.09277,-0.047162 z m -2.3369072,-0.08878 v -0.070502 l 0.046592,-0.01788 0.046593,-0.01788 h 0.082526 0.082526 l 0.015375,0.05891 0.015375,0.05891 h -0.013475 -0.013475 l -0.089644,-0.046351 -0.089643,-0.046351 -0.014684,0.014857 -0.014857,0.014857 0.113242,0.059739 0.113242,0.059739 -0.1399156,0.0013 -0.1399329,0.0013 z m 2.7653572,-0.055196 0.03661,-0.036331 -0.02011,0.052829 -0.02011,0.052812 -0.01658,-0.016412 -0.01641,-0.016412 z m -0.408751,-0.037367 v -0.013648 h 0.05891 0.05891 v 0.045228 0.045228 l -0.05891,-0.031528 -0.05891,-0.031528 z m -2.4891676,0.015721 -0.018209,-0.029455 h 0.0312 0.0312 v 0.029455 0.029455 H 5.3800601 5.3671034 Z M 7.7790783,5.8404864 v -0.044191 h 0.02382 0.02382 l 0.05718,0.043241 0.05718,0.043241 -0.08101,8.914e-4 -0.08101,8.897e-4 z m -2.2976912,0.00154 v -0.042654 l 0.088365,0.030803 0.088365,0.030803 v 0.01192 0.01192 h -0.088365 -0.088365 z m -0.2209333,-0.016239 -0.053313,-0.05891 h 0.092943 0.092943 v 0.05891 0.05891 h -0.03963 -0.03963 z m 0.2798468,-0.047076 v -0.01192 h 0.088365 0.088365 v 0.042654 0.042654 l -0.088365,-0.030803 -0.088365,-0.030803 z m 2.3022007,-0.00795 -0.06342,-0.055006 v -0.033359 -0.033359 h 0.02584 0.02585 l 0.03281,0.039527 0.03281,0.039527 -0.01938,0.019383 -0.01938,0.019383 h 0.03436 0.03436 v 0.029455 0.029455 h -0.01019 -0.01019 z M 5.4813871,5.5955865 V 5.4607154 l 0.1031011,0.099922 0.1031012,0.099922 v 0.032185 0.032184 l -0.1031012,0.00276 -0.1031011,0.00276 z m 0.2453628,-0.1355621 0.017518,-0.045677 0.044761,0.017103 0.044761,0.017103 -0.031649,0.059135 -0.031649,0.059135 -0.030647,-0.030647 -0.030647,-0.03063 z m -0.156984,0.026985 -0.036676,-0.044191 h 0.04464 0.04464 l 0.01693,0.044191 0.01693,0.044191 H 5.6313018 5.6063731 Z M 5.7465115,5.2749139 V 5.1659217 l 0.027365,0.027987 0.027365,0.027987 0.020005,0.081006 0.020005,0.081006 h -0.047387 -0.04737 z"
       id="path892"
       sodipodi:nodetypes="ccccccccccccccccccccccccccccccccccccccccccccccccccccccccccccccccccccccccccccccccccccccccccccccccccccccccccccccccccccccccccccccccccccccccccccccccccccccccccccccccccccccccccccccccccccccccccccccccccccccccccccccccccccccccccccccccccccccccccccccccccccccccccccccccccccccccccccccccccccccccccccccccccccccccccccccccccccccccccccccccccccccccccccccccccccccccccccccccccccccccccccccccccccccccccccccccccccccccccccccccccccccccccccccccccccccccccccccccccccccccccccccccccccccccccccccccccccccccccccccccccccccccccccccccccccccccccccccccccccccccccccccccccccccccccccccccccccccccccccccccccccccccccccccccccccccccccccccccccccccccccccccccccccccccccccccccccccccccccccccccccccccccccccccccccccccccccc" />
  </g>
  <g
     inkscape:groupmode="layer"
     id="layer3"
     inkscape:label="Label">
    <text
       xml:space="preserve"
       style="font-size:4.46796px;line-height:1.25;font-family:Wingdings;-inkscape-font-specification:Wingdings;fill:#cccccc;stroke-width:0.788097"
       x="7.3363805"
       y="13.036817"
       id="Type"><tspan
         sodipodi:role="line"
         id="tspan7120"
         style="font-style:normal;font-variant:normal;font-weight:normal;font-stretch:normal;font-family:Stencil;-inkscape-font-specification:Stencil;text-align:center;text-anchor:middle;fill:#cccccc;stroke-width:0.788097"
         x="7.3363805"
         y="13.036817">fleet</tspan></text>
  </g>
  <g
     inkscape:groupmode="layer"
     id="layer4"
     inkscape:label="Flag">
    <g
       id="g3600"
       transform="translate(-16.697662,-1.9410449)">
      <rect
         style="fill:#003380;stroke-width:0.15"
         id="rect2917"
         width="6"
         height="4.2510085"
         x="16.697662"
         y="1.9410449" />
      <path
         id="rect2941"
         style="fill:#ffffff;stroke-width:0.15"
         d="M 16.697662,1.9410449 19.727626,4.067 16.697662,6.1920539 Z"
         sodipodi:nodetypes="cccc" />
    </g>
  </g>
</svg>
