<?xml version="1.0" encoding="UTF-8" standalone="no"?>
<!-- Created with Inkscape (http://www.inkscape.org/) -->

<svg
   width="15mm"
   height="15mm"
   viewBox="0 0 15 15"
   version="1.1"
   id="svg5"
   inkscape:version="1.1 (c68e22c387, 2021-05-23)"
   sodipodi:docname="PUSSR_SSN.svg"
   xmlns:inkscape="http://www.inkscape.org/namespaces/inkscape"
   xmlns:sodipodi="http://sodipodi.sourceforge.net/DTD/sodipodi-0.dtd"
   xmlns:xlink="http://www.w3.org/1999/xlink"
   xmlns="http://www.w3.org/2000/svg"
   xmlns:svg="http://www.w3.org/2000/svg">
  <sodipodi:namedview
     id="namedview7"
     pagecolor="#ffffff"
     bordercolor="#111111"
     borderopacity="1"
     inkscape:pageshadow="0"
     inkscape:pageopacity="0"
     inkscape:pagecheckerboard="1"
     inkscape:document-units="mm"
     showgrid="false"
     width="15mm"
     showguides="true"
     inkscape:guide-bbox="true"
     inkscape:zoom="8"
     inkscape:cx="10.75"
     inkscape:cy="6.5625"
     inkscape:window-width="1920"
     inkscape:window-height="1057"
     inkscape:window-x="-8"
     inkscape:window-y="-8"
     inkscape:window-maximized="1"
     inkscape:current-layer="layer4">
    <inkscape:grid
       type="xygrid"
       id="grid12412" />
    <sodipodi:guide
       position="5.0270834,7.5"
       orientation="0,1"
       id="guide12414"
       inkscape:label=""
       inkscape:locked="false"
       inkscape:color="rgb(0,0,255)" />
    <sodipodi:guide
       position="7.5,10.766667"
       orientation="-1,0"
       id="guide12418"
       inkscape:label=""
       inkscape:locked="false"
       inkscape:color="rgb(0,0,255)" />
  </sodipodi:namedview>
  <defs
     id="defs2">
    <linearGradient
       inkscape:collect="always"
       id="linearGradient1036">
      <stop
         style="stop-color:#002255;stop-opacity:1"
         offset="0"
         id="stop1032" />
      <stop
         style="stop-color:#37c8ab;stop-opacity:1"
         offset="1"
         id="stop1034" />
    </linearGradient>
    <linearGradient
       inkscape:collect="always"
       xlink:href="#linearGradient1036"
       id="linearGradient1038"
       x1="7.5242205"
       y1="15.007099"
       x2="7.5242205"
       y2="0"
       gradientUnits="userSpaceOnUse" />
  </defs>
  <g
     inkscape:label="Background"
     inkscape:groupmode="layer"
     id="layer1"
     sodipodi:insensitive="true">
    <rect
       style="opacity:1;fill:url(#linearGradient1038);fill-opacity:1;stroke-width:0.15"
       id="BG"
       width="15"
       height="15"
       x="-5.5511151e-17"
       y="0" />
  </g>
  <g
     inkscape:groupmode="layer"
     id="layer2"
     inkscape:label="Sub">
    <g
       id="layer3-0"
       inkscape:label="Label"
       transform="translate(-0.03938,-0.0212579)">
      <text
         xml:space="preserve"
         style="font-size:4.46796px;line-height:1.25;font-family:Wingdings;-inkscape-font-specification:Wingdings;fill:#cccccc;stroke-width:0.788097"
         x="7.3363805"
         y="13.036817"
         id="Type-1"><tspan
           sodipodi:role="line"
           id="tspan7120-2"
           style="font-style:normal;font-variant:normal;font-weight:normal;font-stretch:normal;font-family:Stencil;-inkscape-font-specification:Stencil;text-align:center;text-anchor:middle;fill:#cccccc;stroke-width:0.788097"
           x="7.3363805"
           y="13.036817">SSN</tspan></text>
    </g>
    <g
       inkscape:label="Layer 1"
       id="layer1-3"
       transform="matrix(-0.01092592,0,0,0.01092592,13.606995,6.8044805)"
       style="fill:#000000">
      <g
         id="g15981"
         transform="translate(9.0986441,-18.591387)"
         style="fill:#000000" />
      <g
         id="g14354"
         style="fill:#000000">
        <g
           id="g14346"
           style="fill:#000000">
          <path
             style="fill:#000000;fill-opacity:1;fill-rule:evenodd;stroke:#000000;stroke-width:0.708661;stroke-linecap:butt;stroke-linejoin:miter;stroke-miterlimit:4;stroke-dasharray:none;stroke-opacity:1"
             d="m 23.871507,118.12909 c 1.412842,6.03099 2.48987,12.25814 1.722336,19.25425 -0.08078,0.73534 -0.423247,1.28274 -1.430087,1.76991 -0.395414,0.99003 0.498277,1.60243 1.430087,1.61342 5.005759,-0.30764 6.672732,-11.2329 7.291721,-21.40728"
             id="path10309"
             sodipodi:nodetypes="csccc" />
          <path
             style="fill:#000000;fill-opacity:1;fill-rule:evenodd;stroke:#000000;stroke-width:0.708661;stroke-linecap:butt;stroke-linejoin:miter;stroke-miterlimit:4;stroke-dasharray:none;stroke-opacity:1"
             d="m 24.301108,99.01445 c -0.01603,-1.148323 0.06988,-2.531115 -0.810192,-3.687722 2.458407,0.746634 2.343443,2.195113 2.512259,3.566148"
             id="path10303"
             sodipodi:nodetypes="ccc" />
          <path
             style="fill:#000000;fill-opacity:1;fill-rule:evenodd;stroke:#000000;stroke-width:0.708661;stroke-linecap:butt;stroke-linejoin:miter;stroke-miterlimit:4;stroke-dasharray:none;stroke-opacity:1"
             d="m 33.401992,109.01137 -9.954338,0.72229 -12.555543,4.19823 12.36434,4.28791 10.055991,0.92551"
             id="path5459"
             sodipodi:nodetypes="ccccc" />
          <path
             style="fill:#000000;fill-opacity:1;fill-rule:evenodd;stroke:#000000;stroke-width:0.708661;stroke-linecap:butt;stroke-linejoin:miter;stroke-miterlimit:4;stroke-dasharray:none;stroke-opacity:1"
             d="m 25.528193,98.930929 c -0.332184,-4.048493 -0.46772,-7.965904 -2.120474,-12.894782 7.711943,5.119706 10.525224,23.076883 9.477845,30.488993"
             id="path10305"
             sodipodi:nodetypes="ccc" />
          <path
             style="fill:#000000;fill-opacity:1;fill-rule:evenodd;stroke:#000000;stroke-width:0.708661;stroke-linecap:butt;stroke-linejoin:miter;stroke-miterlimit:4;stroke-dasharray:none;stroke-opacity:1"
             d="m 23.505136,111.35659 c 4.63606,0.88406 6.707523,3.71761 9.380428,6.17354 0.651057,-7.56786 -1.994922,-18.891781 -9.106028,-19.618139 0.787501,3.903359 2.308046,7.749099 -0.06868,11.866919 -0.334,0.57891 -0.317965,1.09701 -0.205724,1.57768 z"
             id="path10301"
             sodipodi:nodetypes="cccsc" />
          <path
             style="fill:#000000;fill-opacity:1;fill-rule:evenodd;stroke:#000000;stroke-width:0.708661;stroke-linecap:butt;stroke-linejoin:miter;stroke-miterlimit:4;stroke-dasharray:none;stroke-opacity:1"
             d="m 23.447654,115.19317 c 4.319305,-0.004 7.294745,1.58071 9.43791,4.14902 0.04417,4.99561 -0.253828,9.0246 -4.528358,10.97314 -2.404555,-0.80763 -3.810439,-3.61285 -4.633034,-7.58478 0.772979,-0.38694 1.62855,-0.96165 1.750472,-2.2128 0.149453,-1.53203 -0.949055,-3.75389 -2.02699,-5.32458 z"
             id="path10307"
             sodipodi:nodetypes="ccccsc" />
        </g>
        <path
           sodipodi:nodetypes="cccccc"
           id="path14297"
           d="M 96.456827,93.305192 83.151903,47.89917 56.624648,47.867918 57.519852,172.04977 86.28194,172.01437 96.6922,134.32145"
           style="fill:#000000;fill-opacity:1;fill-rule:evenodd;stroke:#000000;stroke-width:0.992126;stroke-linecap:butt;stroke-linejoin:miter;stroke-miterlimit:4;stroke-dasharray:none;stroke-opacity:1" />
        <path
           sodipodi:nodetypes="ccsscscscscccsssccssscc"
           d="m 400.49724,165.10959 539.07662,0.2328 c 13.53152,-0.2783 29.26399,-0.85763 41.55814,-1.779 12.45813,-0.93365 28.586,-3.31507 36.6295,-4.74543 13.4983,-2.40038 26.8141,-5.58027 40.4924,-9.35546 11.6518,-3.21578 30.2411,-11.65699 38.399,-18.34847 4.6476,-3.8122 11.0262,-9.04977 10.9488,-16.477 -0.077,-7.27969 -3.9287,-11.94242 -12.1532,-17.807404 -1.9616,-1.398823 -12.1852,-7.841694 -25.3383,-13.09162 -17.5458,-7.00338 -52.997,-14.150612 -79.09828,-16.862392 -30.62934,-3.182224 -51.32885,-2.959013 -83.07454,-3.009537 L 832.32004,63.543755 400.06098,63.459015 C 360.34135,63.44888 280.85579,65.047692 252.66005,67.281738 244.75599,67.907987 204.23464,73.287919 184.856,76.01083 147.7406,81.22595 105.5677,90.003237 93.141639,92.766128 81.633778,95.324831 38.079198,106.39493 33.370831,108.97207 l -0.06868,10.24152 c 4.666313,2.85481 33.928796,11.06576 58.30018,16.53884 20.351889,4.57039 49.576249,10.7902 59.520299,12.69339 48.83081,9.34555 65.8297,9.73162 102.83923,13.21223 19.89294,1.87085 45.2037,0.7256 71.30196,1.90943 43.24599,1.21401 57.62522,1.57845 75.23342,1.54211 z"
           style="fill:#000000;fill-opacity:1;fill-rule:evenodd;stroke:#000000;stroke-width:0.992126;stroke-linecap:butt;stroke-linejoin:miter;stroke-miterlimit:4;stroke-dasharray:none;stroke-opacity:1"
           id="path8339" />
        <path
           sodipodi:nodetypes="cccssccscc"
           id="path12267"
           d="m 812.59228,63.617151 c -29.14268,1.080537 -54.84038,1.545565 -82.94899,0.0406 l 0.0375,-50.285279 c 0.1661,-0.317753 0.27773,-0.702488 1.09064,-0.805048 4.12327,-0.520361 10.21452,-1.348856 20.37247,-2.048682 2.32711,-0.160314 11.51875,-1.0801439 17.19977,-1.2840531 l 20.15192,0.157712 c 2.02608,0.046953 8.92965,0.4312649 17.63693,0.7895581 3.07104,0.126369 6.48667,2.724669 6.52994,3.951512 z"
           style="fill:#000000;fill-opacity:1;fill-rule:evenodd;stroke:#000000;stroke-width:0.992126;stroke-linecap:butt;stroke-linejoin:miter;stroke-miterlimit:4;stroke-dasharray:none;stroke-opacity:1" />
        <path
           sodipodi:nodetypes="cszsc"
           id="path15268"
           d="m 57.14622,114.24843 c 10.862854,-2.803 23.0251,-4.94528 36.753876,-5.07688 11.144214,-0.10889 20.302274,1.74177 20.021224,5.29139 -0.29346,3.70375 -10.55245,5.32721 -16.957745,5.2914 -14.311461,-0.08 -29.549589,-3.1015 -39.817355,-5.50591 z"
           style="fill:#000000;fill-rule:evenodd;stroke:#000000;stroke-width:0.992126;stroke-linecap:butt;stroke-linejoin:miter;stroke-miterlimit:4;stroke-dasharray:none;stroke-opacity:1" />
        <path
           sodipodi:nodetypes="csssscc"
           id="path16349"
           d="m 918.99022,64.990573 c 4.15987,0.08093 9.95374,8.77e-4 12.83388,0.294246 3.73057,0.383313 7.99027,1.717981 10.32525,3.279247 0.45985,0.307558 0.4541,1.477676 -0.006,1.743787 -2.43843,1.410392 -6.18685,2.338699 -10.64472,2.674575 -2.33588,0.175985 -8.23049,0.163669 -12.46811,0.251595 z"
           style="fill:#000000;fill-rule:evenodd;stroke:#000000;stroke-width:0.992126;stroke-linecap:butt;stroke-linejoin:miter;stroke-miterlimit:4;stroke-dasharray:none;stroke-opacity:1" />
        <path
           sodipodi:nodetypes="ccssscccscccsc"
           d="m 141.85234,83.132159 1.14298,6.634071 c -5.57997,1.195806 -9.87144,2.404843 -21.62164,2.526483 -1.65577,0.01721 -0.94693,-2.039488 -0.45501,-2.553333 1.26551,-1.321725 3.66068,-2.447615 5.80808,-3.055473 5.69222,-1.611413 10.89674,-2.710783 15.12559,-3.551748 z m 776.9609,-18.162612 -612.19682,0.0789 c -18.00543,0.573729 -45.98697,1.286715 -60.58161,3.122201 -14.87176,1.881289 -55.78671,6.141239 -104.08203,14.931798 M 918.80204,73.257108 306.57225,73.59931 c -17.90136,0.358741 -36.87822,1.018105 -60.41703,2.74302 -24.26429,1.796776 -60.83119,5.069273 -103.0528,13.396405"
           style="fill:#000000;fill-rule:evenodd;stroke:#000000;stroke-width:0.992126;stroke-linecap:butt;stroke-linejoin:miter;stroke-miterlimit:4;stroke-dasharray:none;stroke-opacity:1"
           id="path16351" />
        <path
           style="fill:#000000;fill-rule:evenodd;stroke:#000000;stroke-width:0.992126;stroke-linecap:butt;stroke-linejoin:miter;stroke-miterlimit:4;stroke-dasharray:none;stroke-opacity:1"
           d="m 771.74267,35.737923 c 2.69741,-1.07845 13.16243,-3.682921 21.00144,-3.659686 7.22425,0.02121 12.27237,1.470929 12.2642,3.403226 -0.008,1.931571 -4.40886,3.337667 -12.67595,3.403227 -8.26649,0.0655 -17.12686,-2.144224 -20.58969,-3.146767 z"
           id="path20383"
           sodipodi:nodetypes="cszsc" />
        <path
           sodipodi:nodetypes="ccccccccc"
           id="rect6480"
           d="m 961.74641,119.99854 43.67289,-0.21013 c 0.6692,0 1.208,0.53888 1.208,1.20825 v 4.52994 c 0,0.66937 -0.5388,1.20825 -1.208,1.20825 l -43.67289,0.21013 c -0.66951,0 -1.20833,-0.53888 -1.20833,-1.20825 v -4.52994 c 0,-0.66937 0.53882,-1.20825 1.20833,-1.20825 z"
           style="fill:#000000;fill-opacity:1;stroke:#000000;stroke-width:0.992126;stroke-miterlimit:4;stroke-dasharray:none;stroke-dashoffset:0;stroke-opacity:1" />
        <path
           style="fill:#000000;fill-opacity:1;stroke:#000000;stroke-width:0.992126;stroke-miterlimit:4;stroke-dasharray:none;stroke-dashoffset:0;stroke-opacity:1"
           d="m 953.07845,132.10761 44.51332,-0.63039 c 0.66921,0 1.20803,0.53888 1.20803,1.20825 v 4.52994 c 0,0.66937 -0.53882,1.20825 -1.20803,1.20825 l -44.51332,0.63039 c -0.66951,0 -1.20832,-0.53888 -1.20832,-1.20825 v -4.52994 c 0,-0.66937 0.53881,-1.20825 1.20832,-1.20825 z"
           id="path6483"
           sodipodi:nodetypes="ccccccccc" />
      </g>
    </g>
  </g>
  <g
     inkscape:groupmode="layer"
     id="layer3"
     inkscape:label="Label">
    <g
       id="g24095"
       transform="translate(3.6289088,-3.7943388)" />
  </g>
  <g
     inkscape:groupmode="layer"
     id="layer4"
     inkscape:label="Flag">
    <g
       id="g927"
       transform="translate(-36.669376,-5.1900368)">
      <rect
         style="fill:#d40000;stroke-width:0.15"
         id="rect2917-8"
         width="5.9999957"
         height="4.2510085"
         x="36.669376"
         y="5.1900368" />
      <path
         sodipodi:type="star"
         style="fill:#ffcc00;stroke-width:0.566929"
         id="path6520"
         inkscape:flatsided="false"
         sodipodi:sides="5"
         sodipodi:cx="86.374992"
         sodipodi:cy="31.624998"
         sodipodi:r1="9.714076"
         sodipodi:r2="4.857038"
         sodipodi:arg1="0.94531129"
         sodipodi:arg2="1.5736298"
         inkscape:rounded="0"
         inkscape:randomized="0"
         transform="matrix(0.12329028,0,0,0.12329028,29.116822,3.4834942)"
         inkscape:transform-center-x="-0.0010482529"
         inkscape:transform-center-y="-0.11336776"
         d="m 92.062492,39.499998 -5.701262,-3.017981 -5.718273,2.985624 1.108483,-6.35483 -4.60654,-4.515793 6.386342,-0.90952 2.871275,-5.776537 2.838493,5.792716 6.381086,0.945696 -4.632057,4.489615 z" />
    </g>
  </g>
</svg>
