<?xml version="1.0" encoding="UTF-8" standalone="no"?>
<!-- Created with Inkscape (http://www.inkscape.org/) -->

<svg
   width="15mm"
   height="15mm"
   viewBox="0 0 15 15"
   version="1.1"
   id="svg5"
   inkscape:version="1.1 (c68e22c387, 2021-05-23)"
   sodipodi:docname="US_SSK.svg"
   xmlns:inkscape="http://www.inkscape.org/namespaces/inkscape"
   xmlns:sodipodi="http://sodipodi.sourceforge.net/DTD/sodipodi-0.dtd"
   xmlns:xlink="http://www.w3.org/1999/xlink"
   xmlns="http://www.w3.org/2000/svg"
   xmlns:svg="http://www.w3.org/2000/svg">
  <sodipodi:namedview
     id="namedview7"
     pagecolor="#ffffff"
     bordercolor="#111111"
     borderopacity="1"
     inkscape:pageshadow="0"
     inkscape:pageopacity="0"
     inkscape:pagecheckerboard="1"
     inkscape:document-units="mm"
     showgrid="false"
     width="15mm"
     showguides="true"
     inkscape:guide-bbox="true"
     inkscape:zoom="8"
     inkscape:cx="33"
     inkscape:cy="30.0625"
     inkscape:window-width="1920"
     inkscape:window-height="1057"
     inkscape:window-x="-8"
     inkscape:window-y="-8"
     inkscape:window-maximized="1"
     inkscape:current-layer="layer4">
    <inkscape:grid
       type="xygrid"
       id="grid12412" />
    <sodipodi:guide
       position="5.0270834,7.5"
       orientation="0,1"
       id="guide12414"
       inkscape:label=""
       inkscape:locked="false"
       inkscape:color="rgb(0,0,255)" />
    <sodipodi:guide
       position="7.5,10.766667"
       orientation="-1,0"
       id="guide12418"
       inkscape:label=""
       inkscape:locked="false"
       inkscape:color="rgb(0,0,255)" />
  </sodipodi:namedview>
  <defs
     id="defs2">
    <linearGradient
       inkscape:collect="always"
       id="linearGradient1036">
      <stop
         style="stop-color:#002255;stop-opacity:1"
         offset="0"
         id="stop1032" />
      <stop
         style="stop-color:#37c8ab;stop-opacity:1"
         offset="1"
         id="stop1034" />
    </linearGradient>
    <linearGradient
       inkscape:collect="always"
       xlink:href="#linearGradient1036"
       id="linearGradient1038"
       x1="7.5242205"
       y1="15.007099"
       x2="7.5242205"
       y2="0"
       gradientUnits="userSpaceOnUse" />
  </defs>
  <g
     inkscape:label="Background"
     inkscape:groupmode="layer"
     id="layer1"
     sodipodi:insensitive="true">
    <rect
       style="opacity:1;fill:url(#linearGradient1038);fill-opacity:1;stroke-width:0.15"
       id="BG"
       width="15"
       height="15"
       x="-5.5511151e-17"
       y="0" />
  </g>
  <g
     inkscape:groupmode="layer"
     id="layer2"
     inkscape:label="Sub">
    <path
       id="Tang"
       style="fill:#000000;stroke-width:0.00713457"
       d="m 6.7520887,5.7295905 v 0.3839882 c -0.0036,3.36e-4 -0.00816,4.344e-4 -0.01068,9.576e-4 l -0.020988,0.0042 0.00204,0.2584018 V 6.6356262 L 6.6702484,6.635583 H 6.6161162 V 6.5249786 6.4144102 H 6.585636 V 5.8277161 h -0.0246 v 0.5866941 h -0.04476 v 0.1097404 c 0,0.1037524 -7.944e-4,0.1099564 -0.01428,0.1134844 -0.01314,0.00348 -0.01428,0.00972 -0.01428,0.079344 V 6.792531 H 6.435804 6.386424 l 0.0018,-0.060876 C 6.37572,6.724815 6.336144,6.727215 6.323988,6.746115 6.315468,6.759303 6.299112,6.790179 6.29298,6.792531 H 6.245736 c -0.061032,0 -0.071292,0.0018 -0.082824,0.014544 -0.014496,0.01602 -0.012156,-0.023016 -0.03558,0.5953593 -0.00816,0.215552 -0.0141,0.308394 -0.019992,0.3123108 -0.00456,0.00312 -0.0951,0.00384 -0.2010523,0.0018 -0.1059484,-0.00204 -0.3266736,-0.00576 -0.4905006,-0.00816 l -0.2978543,-0.00432 v -0.0705 -0.0705 h 0.0321 c 0.017652,0 0.032136,-0.00324 0.032136,-0.0072 0,-0.00432 -0.02976,-0.0072 -0.07494,-0.0072 -0.04518,0 -0.074892,0.00288 -0.074892,0.0072 0,0.00396 0.014436,0.0072 0.032088,0.0072 h 0.032136 v 0.072504 0.072456 l -0.3264204,-0.00504 c -0.1795231,-0.00276 -0.4115103,-0.00804 -0.5154967,-0.01164 -0.1039924,-0.0036 -0.2553009,-0.00672 -0.3363048,-0.00684 -0.164535,-2.412e-4 -0.1559814,0.00264 -0.1559814,-0.053208 0,-0.020004 -0.00432,-0.034308 -0.012588,-0.041808 -0.015624,-0.014136 -0.065688,-0.026076 -0.1103044,-0.026304 -0.040332,-2.1e-4 -0.051456,0.012396 -0.06258,0.071028 -0.00396,0.021048 -0.00816,0.039168 -0.00924,0.040236 -0.003,0.003 -0.4001139,-0.01032 -0.543758,-0.018288 -0.070632,-0.00384 -0.2022452,-0.00888 -0.2924975,-0.01092 -0.090252,-0.00216 -0.2082787,-0.00576 -0.2622333,-0.00816 l -0.098064,-0.00432 V 7.3796734 c 0,-0.1992776 0,-0.252001 0,-0.252001 -0.00156,-0.006 -0.017676,0 -0.017676,0 0,0 -0.00528,0.1604154 -0.00828,0.2539606 -0.00444,0.1370201 -0.00852,0.2500749 -0.00888,0.2512161 -4.548e-4,0.00114 -0.036936,3.132e-4 -0.081084,-0.0018 -0.044148,-0.00216 -0.2016116,-0.00732 -0.3499345,-0.01164 -0.3296052,-0.00948 -0.3459097,-0.00696 -0.3799382,0.058176 -0.027144,0.051948 -0.029736,0.086148 -0.020424,0.2671102 0.0048,0.094176 0.012564,0.2515293 0.01716,0.3496297 0.00912,0.1947043 0.012396,0.2090048 0.05382,0.2327529 0.01164,0.00672 0.073896,0.02196 0.1383461,0.03396 0.064452,0.012012 0.1197364,0.024408 0.122842,0.027516 0.00312,0.00312 0.013944,0.043992 0.024084,0.090876 0.01008,0.046896 0.019068,0.085728 0.01986,0.086268 0.00624,0.00432 0.6427524,-0.018336 0.6472224,-0.022992 0.00324,-0.00336 0.009,-0.032988 0.012888,-0.06588 0.0108,-0.09066 -0.0018,-0.085656 0.2188616,-0.086832 0.2047748,-0.00109 0.1853803,-0.00324 0.5136667,0.057432 0.1255685,0.02322 0.334272,0.060144 0.4637645,0.082044 0.1294925,0.021888 0.2996723,0.052452 0.3781526,0.067884 l 0.1426565,0.028044 1.6409832,-0.0036 c 1.5468141,-0.00348 3.1489488,-0.012396 3.7242208,-0.020688 0.141263,-0.00204 0.375622,-0.00504 0.520807,-0.00684 l 0.263975,-0.00312 0.774116,-0.1267624 c 0.572345,-0.093732 0.78807,-0.1264829 0.827633,-0.1256729 0.07456,0.00156 0.433684,0.014916 0.546414,0.020376 l 0.09341,0.00456 -0.0032,0.03366 c -0.0026,0.027492 1.99e-4,0.039036 0.0155,0.063276 0.01032,0.01632 0.02323,0.0297 0.02879,0.0297 0.01939,0 0.03745,-0.033984 0.04219,-0.079344 0.0025,-0.02442 0.0058,-0.045384 0.007,-0.046632 0.0013,-0.0012 0.01164,-0.00408 0.02317,-0.00636 0.01912,-0.00372 0.02299,-6.972e-4 0.04585,0.035532 0.01658,0.02628 0.02976,0.03966 0.03924,0.039756 0.01032,1.068e-4 0.01176,0.0018 0.0049,0.006 -0.0071,0.00444 0.0013,0.02262 0.03475,0.074904 l 0.04416,0.068976 0.218515,-0.00192 0.21847,-0.00192 0.0019,-0.2033588 c 0.0022,-0.2209292 5.57e-4,-0.2314016 -0.03553,-0.2393288 -0.02237,-0.00492 -0.18134,0.027624 -0.212982,0.043584 -0.01598,0.00804 -0.01922,0.00756 -0.02652,-0.00408 -0.0068,-0.01092 -0.0061,-0.013932 0.004,-0.016764 0.0067,-0.00192 0.07328,-0.018276 0.147839,-0.036408 0.152558,-0.037092 0.194388,-0.05586 0.230575,-0.1034644 0.02239,-0.02946 0.02396,-0.034764 0.01999,-0.06858 C 13.489566,8.0766106 13.465186,8.0447262 13.38667,8.0050864 13.29297,7.9577824 13.024594,7.9057984 12.706222,7.87323 L 12.521544,7.85433 12.441854,7.812138 C 12.338746,7.757551 12.18806,7.716907 12.051084,7.706803 c -0.04931,-0.0036 -0.0937,-0.00912 -0.09859,-0.012108 -0.0068,-0.0042 -0.0083,-0.053904 -0.0061,-0.220256 0.0028,-0.2109452 0.0025,-0.2147684 -0.0114,-0.2147684 -0.01379,0 -0.0145,0.0072 -0.02147,0.210458 -0.004,0.1157644 -0.0098,0.2144792 -0.01294,0.2193836 -0.0073,0.01152 -0.193585,0.01164 -0.882372,8.712e-4 -0.388156,-0.00612 -0.775445,-0.006 -1.551757,2.184e-4 -1.7162555,0.01374 -1.6018063,0.013944 -1.6054939,-0.00276 -0.00528,-0.024168 -0.060048,-0.3911607 -0.095064,-0.637338 l -0.03318,-0.233144 -0.1212749,-0.0054 c -0.066708,-0.00288 -0.2352369,-0.0078 -0.3745394,-0.01068 L 7.0832551,6.7980396 V 5.8371061 H 7.059603 V 6.7977288 L 6.983571,6.7961688 6.979611,6.7105608 6.967335,5.7551641 h -0.003 L 6.953175,6.6766823 6.951015,6.7926027 H 6.927243 6.903471 l -0.00456,-0.043848 c -0.00252,-0.02412 -0.00456,-0.057696 -0.00456,-0.07464 0,-0.035916 -0.0054,-0.038412 -0.05034,-0.038412 H 6.8230221 V 6.3765609 6.1163303 l -0.030312,-0.003 c -0.0048,-4.644e-4 -0.01032,-3.564e-4 -0.01572,-4.788e-4 V 5.7296037 Z m 5.8766923,2.7135196 c 0.02826,1.992e-4 0.02998,0.00888 0.03013,0.03096 8.8e-5,0.0114 -0.0038,0.015348 -0.0145,0.014544 -0.008,-6.048e-4 -0.01529,-0.00168 -0.01607,-0.00228 -7.84e-4,-5.952e-4 -0.04938,-0.00324 -0.108036,-0.00576 -0.150229,-0.00672 -0.147812,-0.00972 0.0236,-0.029832 0.04145,-0.00492 0.06792,-0.0078 0.08486,-0.00768 z m 0.02965,0.062616 c 0.0025,1.02e-4 0.0046,7.74e-4 0.0058,0.00192 0.0024,0.0024 -0.0018,0.00408 -0.0094,0.00372 -0.0083,-3.42e-4 -0.01,-0.00204 -0.0043,-0.00432 0.0025,-0.00103 0.0054,-0.00144 0.0079,-0.00144 z" />
  </g>
  <g
     inkscape:groupmode="layer"
     id="layer3"
     inkscape:label="Label">
    <text
       xml:space="preserve"
       style="font-size:4.46796px;line-height:1.25;font-family:Wingdings;-inkscape-font-specification:Wingdings;fill:#cccccc;stroke-width:0.788097"
       x="3.3363783"
       y="13.036817"
       id="Type"><tspan
         sodipodi:role="line"
         id="tspan7120"
         style="font-style:normal;font-variant:normal;font-weight:normal;font-stretch:normal;font-family:Stencil;-inkscape-font-specification:Stencil;fill:#cccccc;stroke-width:0.788097"
         x="3.3363783"
         y="13.036817">SSK</tspan></text>
  </g>
  <g
     inkscape:groupmode="layer"
     id="layer4"
     inkscape:label="Flag">
    <g
       id="g12792"
       transform="scale(0.00404858)">
      <rect
         width="1482"
         height="1050"
         fill="#002868"
         id="rect2"
         style="fill:#3c3b6e;fill-opacity:1"
         x="0"
         y="0" />
      <g
         id="r1">
        <use
           xlink:href="#s"
           x="-123.5"
           y="-105"
           id="use4"
           width="100%"
           height="100%" />
        <use
           xlink:href="#r2"
           x="123.5"
           y="-105"
           id="use6"
           width="100%"
           height="100%" />
      </g>
      <g
         id="r2">
        <g
           id="s"
           transform="translate(247,210)">
          <g
             id="c">
            <path
               id="t"
               d="M 0,-60 V 0 h 30"
               transform="rotate(18,0,-60)"
               fill="#ffffff" />
            <use
               xlink:href="#t"
               transform="scale(-1,1)"
               id="use10"
               x="0"
               y="0"
               width="100%"
               height="100%" />
          </g>
          <use
             xlink:href="#c"
             transform="rotate(72)"
             id="use13"
             x="0"
             y="0"
             width="100%"
             height="100%" />
          <use
             xlink:href="#c"
             transform="rotate(144)"
             id="use15"
             x="0"
             y="0"
             width="100%"
             height="100%" />
          <use
             xlink:href="#c"
             transform="rotate(-144)"
             id="use17"
             x="0"
             y="0"
             width="100%"
             height="100%" />
          <use
             xlink:href="#c"
             transform="rotate(-72)"
             id="use19"
             x="0"
             y="0"
             width="100%"
             height="100%" />
        </g>
        <use
           xlink:href="#s"
           x="247"
           id="use22"
           y="0"
           width="100%"
           height="100%" />
        <use
           xlink:href="#s"
           x="494"
           id="use24"
           y="0"
           width="100%"
           height="100%" />
        <use
           xlink:href="#s"
           x="741"
           id="use26"
           y="0"
           width="100%"
           height="100%" />
        <use
           xlink:href="#s"
           x="988"
           id="use28"
           y="0"
           width="100%"
           height="100%" />
      </g>
      <use
         xlink:href="#r1"
         y="210"
         id="use31"
         x="0"
         width="100%"
         height="100%" />
      <use
         xlink:href="#r2"
         y="210"
         id="use33"
         x="0"
         width="100%"
         height="100%" />
      <use
         xlink:href="#r1"
         y="420"
         id="use35"
         x="0"
         width="100%"
         height="100%" />
      <use
         xlink:href="#r2"
         y="420"
         id="use37"
         x="0"
         width="100%"
         height="100%" />
      <use
         xlink:href="#r1"
         y="630"
         id="use39"
         x="0"
         width="100%"
         height="100%" />
      <use
         xlink:href="#r2"
         y="630"
         id="use41"
         x="0"
         width="100%"
         height="100%" />
      <use
         xlink:href="#r1"
         y="840"
         id="use43"
         x="0"
         width="100%"
         height="100%" />
    </g>
  </g>
</svg>
