<?xml version="1.0" encoding="UTF-8" standalone="no"?>
<!-- Created with Inkscape (http://www.inkscape.org/) -->

<svg
   width="15mm"
   height="15mm"
   viewBox="0 0 15 15"
   version="1.1"
   id="svg5"
   inkscape:version="1.1 (c68e22c387, 2021-05-23)"
   sodipodi:docname="USSR_SSB.svg"
   xmlns:inkscape="http://www.inkscape.org/namespaces/inkscape"
   xmlns:sodipodi="http://sodipodi.sourceforge.net/DTD/sodipodi-0.dtd"
   xmlns:xlink="http://www.w3.org/1999/xlink"
   xmlns="http://www.w3.org/2000/svg"
   xmlns:svg="http://www.w3.org/2000/svg">
  <sodipodi:namedview
     id="namedview7"
     pagecolor="#ffffff"
     bordercolor="#111111"
     borderopacity="1"
     inkscape:pageshadow="0"
     inkscape:pageopacity="0"
     inkscape:pagecheckerboard="1"
     inkscape:document-units="mm"
     showgrid="false"
     width="15mm"
     showguides="true"
     inkscape:guide-bbox="true"
     inkscape:zoom="11.313709"
     inkscape:cx="42.249628"
     inkscape:cy="23.555494"
     inkscape:window-width="1920"
     inkscape:window-height="1057"
     inkscape:window-x="-8"
     inkscape:window-y="-8"
     inkscape:window-maximized="1"
     inkscape:current-layer="layer3">
    <inkscape:grid
       type="xygrid"
       id="grid12412" />
    <sodipodi:guide
       position="5.0270834,7.5"
       orientation="0,1"
       id="guide12414"
       inkscape:label=""
       inkscape:locked="false"
       inkscape:color="rgb(0,0,255)" />
    <sodipodi:guide
       position="7.5,10.766667"
       orientation="-1,0"
       id="guide12418"
       inkscape:label=""
       inkscape:locked="false"
       inkscape:color="rgb(0,0,255)" />
  </sodipodi:namedview>
  <defs
     id="defs2">
    <linearGradient
       inkscape:collect="always"
       id="linearGradient1036">
      <stop
         style="stop-color:#002255;stop-opacity:1"
         offset="0"
         id="stop1032" />
      <stop
         style="stop-color:#37c8ab;stop-opacity:1"
         offset="1"
         id="stop1034" />
    </linearGradient>
    <linearGradient
       inkscape:collect="always"
       xlink:href="#linearGradient1036"
       id="linearGradient1038"
       x1="7.5242205"
       y1="15.007099"
       x2="7.5242205"
       y2="0"
       gradientUnits="userSpaceOnUse" />
  </defs>
  <g
     inkscape:label="Background"
     inkscape:groupmode="layer"
     id="layer1"
     sodipodi:insensitive="true">
    <rect
       style="opacity:1;fill:url(#linearGradient1038);fill-opacity:1;stroke-width:0.15"
       id="BG"
       width="15"
       height="15"
       x="-5.5511151e-17"
       y="0" />
  </g>
  <g
     inkscape:groupmode="layer"
     id="layer2"
     inkscape:label="Sub">
    <path
       style="fill:#000000;stroke-width:0.00802328"
       d="m 6.9931978,8.911963 0.445292,-0.0041 0.449303,-0.142983 0.449303,-0.142983 0.180524,-0.0035 c 0.720561,-0.01411 2.4028492,-0.02728 3.4809782,-0.02725 l 1.286612,2.7e-5 0.04629,-0.02467 c 0.05966,-0.0318 0.121524,-0.09266 0.147816,-0.145423 0.02054,-0.04121 0.02076,-0.04366 0.02067,-0.226628 -4.8e-5,-0.101732 -0.0025,-0.199331 -0.0054,-0.216887 -0.0074,-0.04486 -0.106017,-0.14267 -0.179088,-0.177634 -0.07663,-0.03667 -0.105982,-0.0413 -0.405175,-0.06388 -0.150035,-0.01132 -0.281817,-0.02172 -0.292849,-0.02311 -0.01103,-0.0014 -0.14462,-0.04984 -0.296862,-0.107681 L 12.043809,7.500097 11.66136,7.500049 11.278913,7.5 11.087696,7.55923 10.89648,7.61846 10.752061,7.61266 c -0.07943,-0.0032 -0.723859,-0.0064 -1.4320642,-0.0072 l -1.287646,-0.0015 -0.0454,-0.04493 -0.0454,-0.04493 -0.118288,-0.330017 c -0.06506,-0.181509 -0.118814,-0.33075 -0.119456,-0.331647 -6.45e-4,-9e-4 -0.09918,-0.01805 -0.218979,-0.03811 l -0.217811,-0.03648 h -0.742683 -0.742683 v -0.04413 -0.04413 h -0.07622 -0.07622 v 0.04413 0.04413 l -0.102297,-9.1e-5 c -0.05626,-5.1e-5 -0.144158,0.0043 -0.195322,0.0096 l -0.09303,0.0097 -0.0052,0.209034 c -0.0029,0.114969 -0.0053,0.278079 -0.0053,0.362467 v 0.153433 l -0.03009,0.04101 -0.03009,0.04101 -1.2608893,1.23e-4 -1.2608907,1.23e-4 -0.06275,-0.08437 c -0.07311,-0.09829 -0.07669,-0.100145 -0.204327,-0.10599 -0.06968,-0.0032 -0.08977,-0.0014 -0.111359,0.0097 l -0.02634,0.01362 0.0042,0.05216 c 0.0023,0.02869 0.0023,0.06626 0,0.0835 l -0.0042,0.03135 h -0.35945 c -0.335462,0 -0.359718,9.38e-4 -0.36345,0.01404 -0.0022,0.0077 -0.0082,0.03501 -0.01324,0.06065 -0.009,0.04547 -0.0085,0.0481 0.01955,0.108314 0.02698,0.05781 0.03997,0.07262 0.205375,0.234209 l 0.176576,0.1725 0.02014,0.07622 c 0.06144,0.232528 0.09618,0.298455 0.176309,0.334589 0.03032,0.01367 0.111282,0.01463 1.5564067,0.01844 l 1.5244223,0.004 0.365025,0.140407 0.365059,0.140407 0.316919,0.004 c 0.174306,0.0022 0.517301,0.0022 0.762212,-9.5e-5 z M 12.697745,8.434674 c 0,-0.07667 0.002,-0.09227 0.01203,-0.09227 0.0066,0 0.01203,0.0035 0.01203,0.0078 0,0.0044 0.01038,0.0057 0.02353,0.0031 0.02244,-0.0045 0.02367,-0.0033 0.02651,0.02628 l 0.003,0.03098 0.0067,-0.03479 c 0.0037,-0.01913 0.01162,-0.03667 0.01762,-0.03897 0.01417,-0.0054 0.0141,-0.01851 -9.4e-5,-0.01851 -0.0071,0 -0.01341,-0.01506 -0.01773,-0.04212 l -0.0067,-0.04212 -0.0028,0.035 c -0.0028,0.03401 -0.0035,0.03487 -0.0264,0.03029 -0.01318,-0.0026 -0.02356,-0.0013 -0.02356,0.0031 0,0.0043 -0.0054,0.0078 -0.01204,0.0078 -0.01,0 -0.01203,-0.01516 -0.01203,-0.08826 v -0.08826 h 0.124361 0.12436 v 0.19657 0.19657 h -0.12436 -0.124361 z"
       id="path21601" />
  </g>
  <g
     inkscape:groupmode="layer"
     id="layer3"
     inkscape:label="Label">
    <text
       xml:space="preserve"
       style="font-size:4.46796px;line-height:1.25;font-family:Wingdings;-inkscape-font-specification:Wingdings;fill:#cccccc;stroke-width:0.788097"
       x="7.3363805"
       y="13.036817"
       id="Type"><tspan
         sodipodi:role="line"
         id="tspan7120"
         style="font-style:normal;font-variant:normal;font-weight:normal;font-stretch:normal;font-family:Stencil;-inkscape-font-specification:Stencil;text-align:center;text-anchor:middle;fill:#cccccc;stroke-width:0.788097"
         x="7.3363805"
         y="13.036817">SSB</tspan></text>
  </g>
  <g
     inkscape:groupmode="layer"
     id="layer4"
     inkscape:label="Flag">
    <g
       id="g15764"
       transform="matrix(0.26458333,0,0,0.26458333,-175.08802,-115.42448)">
      <g
         id="g15799"
         transform="matrix(0.0167979,0,0,0.0167979,661.75001,436.25001)">
        <rect
           width="1350"
           height="900"
           style="fill:#ffffff"
           id="rect15750"
           x="0"
           y="0" />
        <rect
           width="1350"
           height="150"
           y="750"
           id="rect6"
           style="fill:#3399ff"
           x="0" />
        <polygon
           points="3224,4000 2250,3292 1276,4000 1648,2854 673,2146 1878,2146 2250,1000 2622,2146 3827,2146 2852,2854 "
           transform="matrix(0.151,0,0,0.151,-0.673,-2)"
           id="polygon8"
           style="fill:#d81e05" />
        <path
           d="m 995.375,180 c 103.9535,72.8003 194.2999,189.31659 107.9375,290.5625 l -138.5,-140.40625 51.7813,-52.9375 -20.81255,-23.5 -63.15625,2.40625 -87.46875,89.40625 49.6875,56.125 L 938.53125,357 1068.5,494.34375 c -35.2692,11.72126 -74.07363,-1.89749 -115.25,-32.5 -1.57129,-1.16771 -1.70323,-1.40845 -3.28125,-2.625 0,0 -12.40581,20.89058 -19.625,20.53125 -12.32781,-0.61359 -25.67359,4.20862 -28.53125,26.78125 -1.36885,10.81154 -87.81692,37.19848 -53.96875,78.5 34.4166,29.14833 60.566,-32.69015 72.96875,-53.625 6.07935,-10.26146 23.49638,-1.31789 30.71875,-26.09375 0.3771,-1.29362 2.7634,-1.38479 4.5625,-2.34375 34.8843,45.75654 101.81455,54.69971 153.93745,35.28125 l 52.5626,55.53125 c 22.4905,20.58007 48.9054,-15.15913 32.0624,-30.65625 l -46.2812,-46.9375 c 5.0297,-4.24626 9.6575,-8.87527 13.75,-13.90625 46.0995,-56.67112 40.408,-103.20043 31.75,-143.5 C 1173.4095,263.52337 1073.6804,205.06824 995.375,180 Z"
           id="rect3008"
           style="fill:#d81e05" />
      </g>
    </g>
  </g>
</svg>
